solid OpenSCAD_Model
  facet normal -0.948693 -0.316199 0
    outer loop
      vertex 15.125 0 3.1
      vertex 14.7917 1 3.8
      vertex 14.7917 1 3.1
    endloop
  endfacet
  facet normal -0.948693 -0.316199 0
    outer loop
      vertex 14.7917 1 3.8
      vertex 15.125 0 3.1
      vertex 15.125 0 3.8
    endloop
  endfacet
  facet normal 0.948693 -0.316199 0
    outer loop
      vertex 13.125 0 3.8
      vertex 13.4583 1 3.1
      vertex 13.4583 1 3.8
    endloop
  endfacet
  facet normal 0.948693 -0.316199 0
    outer loop
      vertex 13.4583 1 3.1
      vertex 13.125 0 3.8
      vertex 13.125 0 3.1
    endloop
  endfacet
  facet normal -0 0 1
    outer loop
      vertex 13.4583 1 3.1
      vertex 15.125 0 3.1
      vertex 14.7917 1 3.1
    endloop
  endfacet
  facet normal 0 0 1
    outer loop
      vertex 15.125 0 3.1
      vertex 13.4583 1 3.1
      vertex 13.125 0 3.1
    endloop
  endfacet
  facet normal 0 -1 0
    outer loop
      vertex 0 0 3.8
      vertex 13.125 0 3.1
      vertex 13.125 0 3.8
    endloop
  endfacet
  facet normal 0 -1 -0
    outer loop
      vertex 13.125 0 3.1
      vertex 0 0 0
      vertex 15.125 0 3.1
    endloop
  endfacet
  facet normal 0 -1 0
    outer loop
      vertex 0 0 0
      vertex 13.125 0 3.1
      vertex 0 0 3.8
    endloop
  endfacet
  facet normal 0 -1 0
    outer loop
      vertex 15.125 0 3.1
      vertex 66.5 0 3.8
      vertex 15.125 0 3.8
    endloop
  endfacet
  facet normal 0 -1 0
    outer loop
      vertex 66.5 0 0
      vertex 15.125 0 3.1
      vertex 0 0 0
    endloop
  endfacet
  facet normal 0 -1 0
    outer loop
      vertex 15.125 0 3.1
      vertex 66.5 0 0
      vertex 66.5 0 3.8
    endloop
  endfacet
  facet normal -0.948693 0.316199 0
    outer loop
      vertex 53.0417 9 3.1
      vertex 53.375 10 3.8
      vertex 53.375 10 3.1
    endloop
  endfacet
  facet normal -0.948693 0.316199 0
    outer loop
      vertex 53.375 10 3.8
      vertex 53.0417 9 3.1
      vertex 53.0417 9 3.8
    endloop
  endfacet
  facet normal 0 0 1
    outer loop
      vertex 53.375 10 3.1
      vertex 51.7083 9 3.1
      vertex 53.0417 9 3.1
    endloop
  endfacet
  facet normal 0 -0 1
    outer loop
      vertex 51.7083 9 3.1
      vertex 53.375 10 3.1
      vertex 51.375 10 3.1
    endloop
  endfacet
  facet normal 0 1 0
    outer loop
      vertex 66.5 10 3.8
      vertex 53.375 10 3.1
      vertex 53.375 10 3.8
    endloop
  endfacet
  facet normal 0 1 0
    outer loop
      vertex 53.375 10 3.1
      vertex 66.5 10 0
      vertex 51.375 10 3.1
    endloop
  endfacet
  facet normal 0 1 -0
    outer loop
      vertex 66.5 10 0
      vertex 53.375 10 3.1
      vertex 66.5 10 3.8
    endloop
  endfacet
  facet normal 0 1 -0
    outer loop
      vertex 51.375 10 3.1
      vertex 0 10 3.8
      vertex 51.375 10 3.8
    endloop
  endfacet
  facet normal 0 1 0
    outer loop
      vertex 0 10 0
      vertex 51.375 10 3.1
      vertex 66.5 10 0
    endloop
  endfacet
  facet normal 0 1 0
    outer loop
      vertex 51.375 10 3.1
      vertex 0 10 0
      vertex 0 10 3.8
    endloop
  endfacet
  facet normal 0.948693 0.316199 0
    outer loop
      vertex 51.7083 9 3.8
      vertex 51.375 10 3.1
      vertex 51.375 10 3.8
    endloop
  endfacet
  facet normal 0.948693 0.316199 0
    outer loop
      vertex 51.375 10 3.1
      vertex 51.7083 9 3.8
      vertex 51.7083 9 3.1
    endloop
  endfacet
  facet normal 0.948683 0.316228 0
    outer loop
      vertex 15.125 15 0
      vertex 14.625 16.5 -0.600001
      vertex 14.625 16.5 0
    endloop
  endfacet
  facet normal 0.948683 0.316228 0
    outer loop
      vertex 14.625 16.5 -0.600001
      vertex 15.125 15 0
      vertex 15.125 15 -0.600001
    endloop
  endfacet
  facet normal -0.948683 0.316228 0
    outer loop
      vertex 13.125 15 -0.600001
      vertex 13.625 16.5 0
      vertex 13.625 16.5 -0.600001
    endloop
  endfacet
  facet normal -0.948683 0.316228 0
    outer loop
      vertex 13.625 16.5 0
      vertex 13.125 15 -0.600001
      vertex 13.125 15 0
    endloop
  endfacet
  facet normal 0 1 -0
    outer loop
      vertex 14.625 16.5 -0.600001
      vertex 13.625 16.5 0
      vertex 14.625 16.5 0
    endloop
  endfacet
  facet normal 0 1 0
    outer loop
      vertex 13.625 16.5 0
      vertex 14.625 16.5 -0.600001
      vertex 13.625 16.5 -0.600001
    endloop
  endfacet
  facet normal 0 0 -1
    outer loop
      vertex 15.125 15 -0.600001
      vertex 13.625 16.5 -0.600001
      vertex 14.625 16.5 -0.600001
    endloop
  endfacet
  facet normal 0 -0 -1
    outer loop
      vertex 13.625 16.5 -0.600001
      vertex 15.125 15 -0.600001
      vertex 13.125 15 -0.600001
    endloop
  endfacet
  facet normal 0 -1 0
    outer loop
      vertex 13.125 15 -0.600001
      vertex 15.125 15 0
      vertex 13.125 15 0
    endloop
  endfacet
  facet normal 0 -1 -0
    outer loop
      vertex 15.125 15 0
      vertex 13.125 15 -0.600001
      vertex 15.125 15 -0.600001
    endloop
  endfacet
  facet normal 0 -1 0
    outer loop
      vertex 13.125 15 0
      vertex 0 15 0.599999
      vertex 0 15 0
    endloop
  endfacet
  facet normal 0 -1 0
    outer loop
      vertex 15.125 15 0
      vertex 0 15 0.599999
      vertex 13.125 15 0
    endloop
  endfacet
  facet normal 0 -1 0
    outer loop
      vertex 0 15 0.599999
      vertex 15.125 15 0
      vertex 66.5 15 0.599999
    endloop
  endfacet
  facet normal 0 -1 -0
    outer loop
      vertex 66.5 15 0.599999
      vertex 15.125 15 0
      vertex 66.5 15 0
    endloop
  endfacet
  facet normal 0.948683 -0.316228 0
    outer loop
      vertex 52.875 23.5 0
      vertex 53.375 25 -0.600001
      vertex 53.375 25 0
    endloop
  endfacet
  facet normal 0.948683 -0.316228 0
    outer loop
      vertex 53.375 25 -0.600001
      vertex 52.875 23.5 0
      vertex 52.875 23.5 -0.600001
    endloop
  endfacet
  facet normal 0 0 -1
    outer loop
      vertex 51.875 23.5 -0.600001
      vertex 53.375 25 -0.600001
      vertex 52.875 23.5 -0.600001
    endloop
  endfacet
  facet normal -0 0 -1
    outer loop
      vertex 53.375 25 -0.600001
      vertex 51.875 23.5 -0.600001
      vertex 51.375 25 -0.600001
    endloop
  endfacet
  facet normal 0 -1 0
    outer loop
      vertex 51.875 23.5 -0.600001
      vertex 52.875 23.5 0
      vertex 51.875 23.5 0
    endloop
  endfacet
  facet normal 0 -1 -0
    outer loop
      vertex 52.875 23.5 0
      vertex 51.875 23.5 -0.600001
      vertex 52.875 23.5 -0.600001
    endloop
  endfacet
  facet normal 0 1 -0
    outer loop
      vertex 53.375 25 -0.600001
      vertex 51.375 25 0
      vertex 53.375 25 0
    endloop
  endfacet
  facet normal 0 1 0
    outer loop
      vertex 51.375 25 0
      vertex 53.375 25 -0.600001
      vertex 51.375 25 -0.600001
    endloop
  endfacet
  facet normal 0 1 0
    outer loop
      vertex 53.375 25 0
      vertex 66.5 25 0.599999
      vertex 66.5 25 0
    endloop
  endfacet
  facet normal 0 1 0
    outer loop
      vertex 51.375 25 0
      vertex 66.5 25 0.599999
      vertex 53.375 25 0
    endloop
  endfacet
  facet normal 0 1 0
    outer loop
      vertex 66.5 25 0.599999
      vertex 51.375 25 0
      vertex 0 25 0.599999
    endloop
  endfacet
  facet normal 0 1 0
    outer loop
      vertex 0 25 0.599999
      vertex 51.375 25 0
      vertex 0 25 0
    endloop
  endfacet
  facet normal -0.948683 -0.316228 0
    outer loop
      vertex 51.875 23.5 -0.600001
      vertex 51.375 25 0
      vertex 51.375 25 -0.600001
    endloop
  endfacet
  facet normal -0.948683 -0.316228 0
    outer loop
      vertex 51.375 25 0
      vertex 51.875 23.5 -0.600001
      vertex 51.875 23.5 0
    endloop
  endfacet
  facet normal 1 -0 0
    outer loop
      vertex 66.5 15 0.599999
      vertex 66.5 25 0
      vertex 66.5 25 0.599999
    endloop
  endfacet
  facet normal 1 0 0
    outer loop
      vertex 66.5 25 0
      vertex 66.5 15 0.599999
      vertex 66.5 15 0
    endloop
  endfacet
  facet normal -0 0 1
    outer loop
      vertex 0 25 0.599999
      vertex 66.5 15 0.599999
      vertex 66.5 25 0.599999
    endloop
  endfacet
  facet normal 0 0 1
    outer loop
      vertex 66.5 15 0.599999
      vertex 0 25 0.599999
      vertex 0 15 0.599999
    endloop
  endfacet
  facet normal 0 0 -1
    outer loop
      vertex 52.875 23.5 0
      vertex 66.5 25 0
      vertex 66.5 15 0
    endloop
  endfacet
  facet normal -0 0 -1
    outer loop
      vertex 66.5 25 0
      vertex 52.875 23.5 0
      vertex 53.375 25 0
    endloop
  endfacet
  facet normal 0 0 -1
    outer loop
      vertex 66.5 15 0
      vertex 51.875 23.5 0
      vertex 52.875 23.5 0
    endloop
  endfacet
  facet normal 0 0 -1
    outer loop
      vertex 15.125 15 0
      vertex 51.875 23.5 0
      vertex 66.5 15 0
    endloop
  endfacet
  facet normal 0 0 -1
    outer loop
      vertex 15.125 15 0
      vertex 51.375 25 0
      vertex 51.875 23.5 0
    endloop
  endfacet
  facet normal 0 0 -1
    outer loop
      vertex 14.625 16.5 0
      vertex 51.375 25 0
      vertex 15.125 15 0
    endloop
  endfacet
  facet normal 0 0 -1
    outer loop
      vertex 0 25 0
      vertex 14.625 16.5 0
      vertex 13.625 16.5 0
    endloop
  endfacet
  facet normal 0 0 -1
    outer loop
      vertex 0 15 0
      vertex 13.625 16.5 0
      vertex 13.125 15 0
    endloop
  endfacet
  facet normal 0 0 -1
    outer loop
      vertex 0 25 0
      vertex 13.625 16.5 0
      vertex 0 15 0
    endloop
  endfacet
  facet normal 0 0 -1
    outer loop
      vertex 14.625 16.5 0
      vertex 0 25 0
      vertex 51.375 25 0
    endloop
  endfacet
  facet normal -1 0 0
    outer loop
      vertex 0 15 0
      vertex 0 25 0.599999
      vertex 0 25 0
    endloop
  endfacet
  facet normal -1 -0 0
    outer loop
      vertex 0 25 0.599999
      vertex 0 15 0
      vertex 0 15 0.599999
    endloop
  endfacet
  facet normal -0.948693 -0.316199 0
    outer loop
      vertex 16.5 30 3.1
      vertex 16.1667 31 3.8
      vertex 16.1667 31 3.1
    endloop
  endfacet
  facet normal -0.948693 -0.316199 0
    outer loop
      vertex 16.1667 31 3.8
      vertex 16.5 30 3.1
      vertex 16.5 30 3.8
    endloop
  endfacet
  facet normal 0.948693 -0.316199 0
    outer loop
      vertex 14.5 30 3.8
      vertex 14.8333 31 3.1
      vertex 14.8333 31 3.8
    endloop
  endfacet
  facet normal 0.948693 -0.316199 0
    outer loop
      vertex 14.8333 31 3.1
      vertex 14.5 30 3.8
      vertex 14.5 30 3.1
    endloop
  endfacet
  facet normal -0 0 1
    outer loop
      vertex 14.8333 31 3.1
      vertex 16.5 30 3.1
      vertex 16.1667 31 3.1
    endloop
  endfacet
  facet normal 0 0 1
    outer loop
      vertex 16.5 30 3.1
      vertex 14.8333 31 3.1
      vertex 14.5 30 3.1
    endloop
  endfacet
  facet normal 0 -1 0
    outer loop
      vertex 0 30 3.8
      vertex 14.5 30 3.1
      vertex 14.5 30 3.8
    endloop
  endfacet
  facet normal 0 -1 -0
    outer loop
      vertex 14.5 30 3.1
      vertex 0 30 0
      vertex 16.5 30 3.1
    endloop
  endfacet
  facet normal 0 -1 0
    outer loop
      vertex 0 30 0
      vertex 14.5 30 3.1
      vertex 0 30 3.8
    endloop
  endfacet
  facet normal 0 -1 0
    outer loop
      vertex 16.5 30 3.1
      vertex 72 30 3.8
      vertex 16.5 30 3.8
    endloop
  endfacet
  facet normal 0 -1 0
    outer loop
      vertex 72 30 0
      vertex 16.5 30 3.1
      vertex 0 30 0
    endloop
  endfacet
  facet normal 0 -1 0
    outer loop
      vertex 16.5 30 3.1
      vertex 72 30 0
      vertex 72 30 3.8
    endloop
  endfacet
  facet normal -0.948693 0.316199 0
    outer loop
      vertex 57.1667 39 3.1
      vertex 57.5 40 3.8
      vertex 57.5 40 3.1
    endloop
  endfacet
  facet normal -0.948693 0.316199 0
    outer loop
      vertex 57.5 40 3.8
      vertex 57.1667 39 3.1
      vertex 57.1667 39 3.8
    endloop
  endfacet
  facet normal 0 0 1
    outer loop
      vertex 57.5 40 3.1
      vertex 55.8333 39 3.1
      vertex 57.1667 39 3.1
    endloop
  endfacet
  facet normal 0 -0 1
    outer loop
      vertex 55.8333 39 3.1
      vertex 57.5 40 3.1
      vertex 55.5 40 3.1
    endloop
  endfacet
  facet normal 0 1 0
    outer loop
      vertex 72 40 3.8
      vertex 57.5 40 3.1
      vertex 57.5 40 3.8
    endloop
  endfacet
  facet normal 0 1 0
    outer loop
      vertex 57.5 40 3.1
      vertex 72 40 0
      vertex 55.5 40 3.1
    endloop
  endfacet
  facet normal 0 1 -0
    outer loop
      vertex 72 40 0
      vertex 57.5 40 3.1
      vertex 72 40 3.8
    endloop
  endfacet
  facet normal 0 1 -0
    outer loop
      vertex 55.5 40 3.1
      vertex 0 40 3.8
      vertex 55.5 40 3.8
    endloop
  endfacet
  facet normal 0 1 0
    outer loop
      vertex 0 40 0
      vertex 55.5 40 3.1
      vertex 72 40 0
    endloop
  endfacet
  facet normal 0 1 0
    outer loop
      vertex 55.5 40 3.1
      vertex 0 40 0
      vertex 0 40 3.8
    endloop
  endfacet
  facet normal 0.948693 0.316199 0
    outer loop
      vertex 55.8333 39 3.8
      vertex 55.5 40 3.1
      vertex 55.5 40 3.8
    endloop
  endfacet
  facet normal 0.948693 0.316199 0
    outer loop
      vertex 55.5 40 3.1
      vertex 55.8333 39 3.8
      vertex 55.8333 39 3.1
    endloop
  endfacet
  facet normal 1 0 0
    outer loop
      vertex 72 31 3.8
      vertex 72 30 3.8
      vertex 72 31 2
    endloop
  endfacet
  facet normal 1 -0 0
    outer loop
      vertex 72 31 2
      vertex 72 34 0
      vertex 72 34 2
    endloop
  endfacet
  facet normal 1 0 0
    outer loop
      vertex 72 31 2
      vertex 72 30 0
      vertex 72 34 0
    endloop
  endfacet
  facet normal 1 0 0
    outer loop
      vertex 72 30 0
      vertex 72 31 2
      vertex 72 30 3.8
    endloop
  endfacet
  facet normal 1 0 0
    outer loop
      vertex 72 39 2
      vertex 72 40 3.8
      vertex 72 39 3.8
    endloop
  endfacet
  facet normal 1 0 0
    outer loop
      vertex 72 40 3.8
      vertex 72 39 2
      vertex 72 40 0
    endloop
  endfacet
  facet normal 1 0 0
    outer loop
      vertex 72 36 0
      vertex 72 39 2
      vertex 72 36 2
    endloop
  endfacet
  facet normal 1 0 0
    outer loop
      vertex 72 39 2
      vertex 72 36 0
      vertex 72 40 0
    endloop
  endfacet
  facet normal 0 0 1
    outer loop
      vertex -3 37 2
      vertex 0 34 2
      vertex 0 36 2
    endloop
  endfacet
  facet normal 0 0 1
    outer loop
      vertex 0 34 2
      vertex -3 37 2
      vertex -3 33 2
    endloop
  endfacet
  facet normal 0 0 1
    outer loop
      vertex 0 36 2
      vertex 72 36 2
      vertex 72 39 2
    endloop
  endfacet
  facet normal 0 0 1
    outer loop
      vertex 72 36 2
      vertex 0 36 2
      vertex 72 34 2
    endloop
  endfacet
  facet normal 0 0 1
    outer loop
      vertex 0 36 2
      vertex 72 39 2
      vertex 0 39 2
    endloop
  endfacet
  facet normal 0 0 1
    outer loop
      vertex 0 34 2
      vertex 72 34 2
      vertex 0 36 2
    endloop
  endfacet
  facet normal 0 0 1
    outer loop
      vertex 72 34 2
      vertex 0 34 2
      vertex 72 31 2
    endloop
  endfacet
  facet normal 0 0 1
    outer loop
      vertex 72 31 2
      vertex 0 34 2
      vertex 0 31 2
    endloop
  endfacet
  facet normal -0 0 1
    outer loop
      vertex 72 36 2
      vertex 75 33 2
      vertex 75 37 2
    endloop
  endfacet
  facet normal 0 0 1
    outer loop
      vertex 75 33 2
      vertex 72 36 2
      vertex 72 34 2
    endloop
  endfacet
  facet normal 0 0 -1
    outer loop
      vertex -3 33 0
      vertex 0 36 0
      vertex 0 34 0
    endloop
  endfacet
  facet normal -0 0 -1
    outer loop
      vertex 0 36 0
      vertex -3 33 0
      vertex -3 37 0
    endloop
  endfacet
  facet normal 0 0 -1
    outer loop
      vertex 0 34 0
      vertex 72 34 0
      vertex 72 30 0
    endloop
  endfacet
  facet normal 0 0 -1
    outer loop
      vertex 72 34 0
      vertex 0 34 0
      vertex 72 36 0
    endloop
  endfacet
  facet normal 0 0 -1
    outer loop
      vertex 0 34 0
      vertex 72 30 0
      vertex 0 30 0
    endloop
  endfacet
  facet normal 0 0 -1
    outer loop
      vertex 0 36 0
      vertex 72 36 0
      vertex 0 34 0
    endloop
  endfacet
  facet normal 0 0 -1
    outer loop
      vertex 72 36 0
      vertex 0 36 0
      vertex 72 40 0
    endloop
  endfacet
  facet normal -0 0 -1
    outer loop
      vertex 72 40 0
      vertex 0 36 0
      vertex 0 40 0
    endloop
  endfacet
  facet normal 0 0 -1
    outer loop
      vertex 72 34 0
      vertex 75 37 0
      vertex 75 33 0
    endloop
  endfacet
  facet normal 0 0 -1
    outer loop
      vertex 75 37 0
      vertex 72 34 0
      vertex 72 36 0
    endloop
  endfacet
  facet normal -1 0 0
    outer loop
      vertex 0 34 0
      vertex 0 31 2
      vertex 0 34 2
    endloop
  endfacet
  facet normal -1 0 0
    outer loop
      vertex 0 30 0
      vertex 0 31 2
      vertex 0 34 0
    endloop
  endfacet
  facet normal -1 0 0
    outer loop
      vertex 0 30 3.8
      vertex 0 31 2
      vertex 0 30 0
    endloop
  endfacet
  facet normal -1 0 0
    outer loop
      vertex 0 31 2
      vertex 0 30 3.8
      vertex 0 31 3.8
    endloop
  endfacet
  facet normal -1 0 0
    outer loop
      vertex 0 40 0
      vertex 0 39 2
      vertex 0 40 3.8
    endloop
  endfacet
  facet normal -1 0 0
    outer loop
      vertex 0 36 0
      vertex 0 39 2
      vertex 0 40 0
    endloop
  endfacet
  facet normal -1 -0 0
    outer loop
      vertex 0 39 2
      vertex 0 36 0
      vertex 0 36 2
    endloop
  endfacet
  facet normal -1 -0 0
    outer loop
      vertex 0 40 3.8
      vertex 0 39 2
      vertex 0 39 3.8
    endloop
  endfacet
  facet normal -0 0 1
    outer loop
      vertex 0 31 3.8
      vertex 14.5 30 3.8
      vertex 14.8333 31 3.8
    endloop
  endfacet
  facet normal 0 0 1
    outer loop
      vertex 14.5 30 3.8
      vertex 0 31 3.8
      vertex 0 30 3.8
    endloop
  endfacet
  facet normal 0 0 1
    outer loop
      vertex 72 31 3.8
      vertex 16.5 30 3.8
      vertex 72 30 3.8
    endloop
  endfacet
  facet normal 0 -0 1
    outer loop
      vertex 16.5 30 3.8
      vertex 72 31 3.8
      vertex 16.1667 31 3.8
    endloop
  endfacet
  facet normal 0 1 0
    outer loop
      vertex 72 31 3.8
      vertex 16.1667 31 3.1
      vertex 16.1667 31 3.8
    endloop
  endfacet
  facet normal 0 1 0
    outer loop
      vertex 0 31 2
      vertex 16.1667 31 3.1
      vertex 72 31 2
    endloop
  endfacet
  facet normal 0 1 -0
    outer loop
      vertex 72 31 2
      vertex 16.1667 31 3.1
      vertex 72 31 3.8
    endloop
  endfacet
  facet normal 0 1 -0
    outer loop
      vertex 14.8333 31 3.1
      vertex 0 31 3.8
      vertex 14.8333 31 3.8
    endloop
  endfacet
  facet normal 0 1 0
    outer loop
      vertex 14.8333 31 3.1
      vertex 0 31 2
      vertex 0 31 3.8
    endloop
  endfacet
  facet normal 0 1 0
    outer loop
      vertex 16.1667 31 3.1
      vertex 0 31 2
      vertex 14.8333 31 3.1
    endloop
  endfacet
  facet normal 0 0 1
    outer loop
      vertex 0 39 3.8
      vertex 55.5 40 3.8
      vertex 0 40 3.8
    endloop
  endfacet
  facet normal 0 0 1
    outer loop
      vertex 55.5 40 3.8
      vertex 0 39 3.8
      vertex 55.8333 39 3.8
    endloop
  endfacet
  facet normal -0 0 1
    outer loop
      vertex 57.5 40 3.8
      vertex 72 39 3.8
      vertex 72 40 3.8
    endloop
  endfacet
  facet normal 0 0 1
    outer loop
      vertex 72 39 3.8
      vertex 57.5 40 3.8
      vertex 57.1667 39 3.8
    endloop
  endfacet
  facet normal 0 -1 0
    outer loop
      vertex 0 39 3.8
      vertex 55.8333 39 3.1
      vertex 55.8333 39 3.8
    endloop
  endfacet
  facet normal 0 -1 0
    outer loop
      vertex 72 39 2
      vertex 55.8333 39 3.1
      vertex 0 39 2
    endloop
  endfacet
  facet normal 0 -1 0
    outer loop
      vertex 0 39 2
      vertex 55.8333 39 3.1
      vertex 0 39 3.8
    endloop
  endfacet
  facet normal 0 -1 0
    outer loop
      vertex 57.1667 39 3.1
      vertex 72 39 3.8
      vertex 57.1667 39 3.8
    endloop
  endfacet
  facet normal 0 -1 0
    outer loop
      vertex 57.1667 39 3.1
      vertex 72 39 2
      vertex 72 39 3.8
    endloop
  endfacet
  facet normal 0 -1 0
    outer loop
      vertex 55.8333 39 3.1
      vertex 72 39 2
      vertex 57.1667 39 3.1
    endloop
  endfacet
  facet normal 0.316228 0.948683 -0
    outer loop
      vertex 0 36 0
      vertex -3 37 2
      vertex 0 36 2
    endloop
  endfacet
  facet normal 0.316228 0.948683 0
    outer loop
      vertex -3 37 2
      vertex 0 36 0
      vertex -3 37 0
    endloop
  endfacet
  facet normal -1 0 0
    outer loop
      vertex -3 33 0
      vertex -3 37 2
      vertex -3 37 0
    endloop
  endfacet
  facet normal -1 -0 0
    outer loop
      vertex -3 37 2
      vertex -3 33 0
      vertex -3 33 2
    endloop
  endfacet
  facet normal 0.316228 -0.948683 0
    outer loop
      vertex -3 33 0
      vertex 0 34 2
      vertex -3 33 2
    endloop
  endfacet
  facet normal 0.316228 -0.948683 0
    outer loop
      vertex 0 34 2
      vertex -3 33 0
      vertex 0 34 0
    endloop
  endfacet
  facet normal -0.316228 -0.948683 0
    outer loop
      vertex 72 34 0
      vertex 75 33 2
      vertex 72 34 2
    endloop
  endfacet
  facet normal -0.316228 -0.948683 -0
    outer loop
      vertex 75 33 2
      vertex 72 34 0
      vertex 75 33 0
    endloop
  endfacet
  facet normal -0.316228 0.948683 0
    outer loop
      vertex 75 37 0
      vertex 72 36 2
      vertex 75 37 2
    endloop
  endfacet
  facet normal -0.316228 0.948683 0
    outer loop
      vertex 72 36 2
      vertex 75 37 0
      vertex 72 36 0
    endloop
  endfacet
  facet normal 1 -0 0
    outer loop
      vertex 75 33 2
      vertex 75 37 0
      vertex 75 37 2
    endloop
  endfacet
  facet normal 1 0 0
    outer loop
      vertex 75 37 0
      vertex 75 33 2
      vertex 75 33 0
    endloop
  endfacet
  facet normal 0.948683 0.316228 0
    outer loop
      vertex 16.5 45 0
      vertex 16 46.5 -0.600001
      vertex 16 46.5 0
    endloop
  endfacet
  facet normal 0.948683 0.316228 0
    outer loop
      vertex 16 46.5 -0.600001
      vertex 16.5 45 0
      vertex 16.5 45 -0.600001
    endloop
  endfacet
  facet normal -0.948683 0.316228 0
    outer loop
      vertex 14.5 45 -0.600001
      vertex 15 46.5 0
      vertex 15 46.5 -0.600001
    endloop
  endfacet
  facet normal -0.948683 0.316228 0
    outer loop
      vertex 15 46.5 0
      vertex 14.5 45 -0.600001
      vertex 14.5 45 0
    endloop
  endfacet
  facet normal 0 1 -0
    outer loop
      vertex 16 46.5 -0.600001
      vertex 15 46.5 0
      vertex 16 46.5 0
    endloop
  endfacet
  facet normal 0 1 0
    outer loop
      vertex 15 46.5 0
      vertex 16 46.5 -0.600001
      vertex 15 46.5 -0.600001
    endloop
  endfacet
  facet normal 0 0 -1
    outer loop
      vertex 16.5 45 -0.600001
      vertex 15 46.5 -0.600001
      vertex 16 46.5 -0.600001
    endloop
  endfacet
  facet normal 0 -0 -1
    outer loop
      vertex 15 46.5 -0.600001
      vertex 16.5 45 -0.600001
      vertex 14.5 45 -0.600001
    endloop
  endfacet
  facet normal 0 -1 0
    outer loop
      vertex 14.5 45 -0.600001
      vertex 16.5 45 0
      vertex 14.5 45 0
    endloop
  endfacet
  facet normal 0 -1 -0
    outer loop
      vertex 16.5 45 0
      vertex 14.5 45 -0.600001
      vertex 16.5 45 -0.600001
    endloop
  endfacet
  facet normal 0 -1 0
    outer loop
      vertex 14.5 45 0
      vertex 0 45 0.599999
      vertex 0 45 0
    endloop
  endfacet
  facet normal 0 -1 0
    outer loop
      vertex 16.5 45 0
      vertex 0 45 0.599999
      vertex 14.5 45 0
    endloop
  endfacet
  facet normal 0 -1 0
    outer loop
      vertex 0 45 0.599999
      vertex 16.5 45 0
      vertex 72 45 0.599999
    endloop
  endfacet
  facet normal 0 -1 -0
    outer loop
      vertex 72 45 0.599999
      vertex 16.5 45 0
      vertex 72 45 0
    endloop
  endfacet
  facet normal 0.948683 -0.316228 0
    outer loop
      vertex 57 53.5 0
      vertex 57.5 55 -0.600001
      vertex 57.5 55 0
    endloop
  endfacet
  facet normal 0.948683 -0.316228 0
    outer loop
      vertex 57.5 55 -0.600001
      vertex 57 53.5 0
      vertex 57 53.5 -0.600001
    endloop
  endfacet
  facet normal 0 0 -1
    outer loop
      vertex 56 53.5 -0.600001
      vertex 57.5 55 -0.600001
      vertex 57 53.5 -0.600001
    endloop
  endfacet
  facet normal -0 0 -1
    outer loop
      vertex 57.5 55 -0.600001
      vertex 56 53.5 -0.600001
      vertex 55.5 55 -0.600001
    endloop
  endfacet
  facet normal 0 -1 0
    outer loop
      vertex 56 53.5 -0.600001
      vertex 57 53.5 0
      vertex 56 53.5 0
    endloop
  endfacet
  facet normal 0 -1 -0
    outer loop
      vertex 57 53.5 0
      vertex 56 53.5 -0.600001
      vertex 57 53.5 -0.600001
    endloop
  endfacet
  facet normal 0 1 -0
    outer loop
      vertex 57.5 55 -0.600001
      vertex 55.5 55 0
      vertex 57.5 55 0
    endloop
  endfacet
  facet normal 0 1 0
    outer loop
      vertex 55.5 55 0
      vertex 57.5 55 -0.600001
      vertex 55.5 55 -0.600001
    endloop
  endfacet
  facet normal 0 1 0
    outer loop
      vertex 57.5 55 0
      vertex 72 55 0.599999
      vertex 72 55 0
    endloop
  endfacet
  facet normal 0 1 0
    outer loop
      vertex 55.5 55 0
      vertex 72 55 0.599999
      vertex 57.5 55 0
    endloop
  endfacet
  facet normal 0 1 0
    outer loop
      vertex 72 55 0.599999
      vertex 55.5 55 0
      vertex 0 55 0.599999
    endloop
  endfacet
  facet normal 0 1 0
    outer loop
      vertex 0 55 0.599999
      vertex 55.5 55 0
      vertex 0 55 0
    endloop
  endfacet
  facet normal -0.948683 -0.316228 0
    outer loop
      vertex 56 53.5 -0.600001
      vertex 55.5 55 0
      vertex 55.5 55 -0.600001
    endloop
  endfacet
  facet normal -0.948683 -0.316228 0
    outer loop
      vertex 55.5 55 0
      vertex 56 53.5 -0.600001
      vertex 56 53.5 0
    endloop
  endfacet
  facet normal 1 -0 0
    outer loop
      vertex 72 45 0.599999
      vertex 72 55 0
      vertex 72 55 0.599999
    endloop
  endfacet
  facet normal 1 0 0
    outer loop
      vertex 72 55 0
      vertex 72 45 0.599999
      vertex 72 45 0
    endloop
  endfacet
  facet normal -0 0 1
    outer loop
      vertex 0 55 0.599999
      vertex 72 45 0.599999
      vertex 72 55 0.599999
    endloop
  endfacet
  facet normal 0 0 1
    outer loop
      vertex 72 45 0.599999
      vertex 0 55 0.599999
      vertex 0 45 0.599999
    endloop
  endfacet
  facet normal 0 0 -1
    outer loop
      vertex 57 53.5 0
      vertex 72 55 0
      vertex 72 45 0
    endloop
  endfacet
  facet normal -0 0 -1
    outer loop
      vertex 72 55 0
      vertex 57 53.5 0
      vertex 57.5 55 0
    endloop
  endfacet
  facet normal 0 0 -1
    outer loop
      vertex 72 45 0
      vertex 56 53.5 0
      vertex 57 53.5 0
    endloop
  endfacet
  facet normal 0 0 -1
    outer loop
      vertex 16.5 45 0
      vertex 56 53.5 0
      vertex 72 45 0
    endloop
  endfacet
  facet normal 0 0 -1
    outer loop
      vertex 16.5 45 0
      vertex 55.5 55 0
      vertex 56 53.5 0
    endloop
  endfacet
  facet normal 0 0 -1
    outer loop
      vertex 16 46.5 0
      vertex 55.5 55 0
      vertex 16.5 45 0
    endloop
  endfacet
  facet normal 0 0 -1
    outer loop
      vertex 0 55 0
      vertex 16 46.5 0
      vertex 15 46.5 0
    endloop
  endfacet
  facet normal 0 0 -1
    outer loop
      vertex 0 45 0
      vertex 15 46.5 0
      vertex 14.5 45 0
    endloop
  endfacet
  facet normal 0 0 -1
    outer loop
      vertex 0 55 0
      vertex 15 46.5 0
      vertex 0 45 0
    endloop
  endfacet
  facet normal 0 0 -1
    outer loop
      vertex 16 46.5 0
      vertex 0 55 0
      vertex 55.5 55 0
    endloop
  endfacet
  facet normal -1 0 0
    outer loop
      vertex 0 45 0
      vertex 0 55 0.599999
      vertex 0 55 0
    endloop
  endfacet
  facet normal -1 -0 0
    outer loop
      vertex 0 55 0.599999
      vertex 0 45 0
      vertex 0 45 0.599999
    endloop
  endfacet
  facet normal 1 0 0
    outer loop
      vertex 66.5 1 3.8
      vertex 66.5 0 3.8
      vertex 66.5 1 2
    endloop
  endfacet
  facet normal 1 -0 0
    outer loop
      vertex 66.5 1 2
      vertex 66.5 4 0
      vertex 66.5 4 2
    endloop
  endfacet
  facet normal 1 0 0
    outer loop
      vertex 66.5 1 2
      vertex 66.5 0 0
      vertex 66.5 4 0
    endloop
  endfacet
  facet normal 1 0 0
    outer loop
      vertex 66.5 0 0
      vertex 66.5 1 2
      vertex 66.5 0 3.8
    endloop
  endfacet
  facet normal 1 0 0
    outer loop
      vertex 66.5 9 2
      vertex 66.5 10 3.8
      vertex 66.5 9 3.8
    endloop
  endfacet
  facet normal 1 0 0
    outer loop
      vertex 66.5 10 3.8
      vertex 66.5 9 2
      vertex 66.5 10 0
    endloop
  endfacet
  facet normal 1 0 0
    outer loop
      vertex 66.5 6 0
      vertex 66.5 9 2
      vertex 66.5 6 2
    endloop
  endfacet
  facet normal 1 0 0
    outer loop
      vertex 66.5 9 2
      vertex 66.5 6 0
      vertex 66.5 10 0
    endloop
  endfacet
  facet normal 0 0 1
    outer loop
      vertex -3 7 2
      vertex 0 4 2
      vertex 0 6 2
    endloop
  endfacet
  facet normal 0 0 1
    outer loop
      vertex 0 4 2
      vertex -3 7 2
      vertex -3 3 2
    endloop
  endfacet
  facet normal 0 0 1
    outer loop
      vertex 0 6 2
      vertex 66.5 6 2
      vertex 66.5 9 2
    endloop
  endfacet
  facet normal 0 0 1
    outer loop
      vertex 66.5 6 2
      vertex 0 6 2
      vertex 66.5 4 2
    endloop
  endfacet
  facet normal 0 0 1
    outer loop
      vertex 0 6 2
      vertex 66.5 9 2
      vertex 0 9 2
    endloop
  endfacet
  facet normal 0 0 1
    outer loop
      vertex 0 4 2
      vertex 66.5 4 2
      vertex 0 6 2
    endloop
  endfacet
  facet normal 0 0 1
    outer loop
      vertex 66.5 4 2
      vertex 0 4 2
      vertex 66.5 1 2
    endloop
  endfacet
  facet normal 0 0 1
    outer loop
      vertex 66.5 1 2
      vertex 0 4 2
      vertex 0 1 2
    endloop
  endfacet
  facet normal -0 0 1
    outer loop
      vertex 66.5 6 2
      vertex 69.5 3 2
      vertex 69.5 7 2
    endloop
  endfacet
  facet normal 0 0 1
    outer loop
      vertex 69.5 3 2
      vertex 66.5 6 2
      vertex 66.5 4 2
    endloop
  endfacet
  facet normal 0 0 -1
    outer loop
      vertex -3 3 0
      vertex 0 6 0
      vertex 0 4 0
    endloop
  endfacet
  facet normal -0 0 -1
    outer loop
      vertex 0 6 0
      vertex -3 3 0
      vertex -3 7 0
    endloop
  endfacet
  facet normal 0 0 -1
    outer loop
      vertex 0 4 0
      vertex 66.5 4 0
      vertex 66.5 0 0
    endloop
  endfacet
  facet normal 0 0 -1
    outer loop
      vertex 66.5 4 0
      vertex 0 4 0
      vertex 66.5 6 0
    endloop
  endfacet
  facet normal 0 0 -1
    outer loop
      vertex 0 4 0
      vertex 66.5 0 0
      vertex 0 0 0
    endloop
  endfacet
  facet normal 0 0 -1
    outer loop
      vertex 0 6 0
      vertex 66.5 6 0
      vertex 0 4 0
    endloop
  endfacet
  facet normal 0 0 -1
    outer loop
      vertex 66.5 6 0
      vertex 0 6 0
      vertex 66.5 10 0
    endloop
  endfacet
  facet normal -0 0 -1
    outer loop
      vertex 66.5 10 0
      vertex 0 6 0
      vertex 0 10 0
    endloop
  endfacet
  facet normal 0 0 -1
    outer loop
      vertex 66.5 4 0
      vertex 69.5 7 0
      vertex 69.5 3 0
    endloop
  endfacet
  facet normal 0 0 -1
    outer loop
      vertex 69.5 7 0
      vertex 66.5 4 0
      vertex 66.5 6 0
    endloop
  endfacet
  facet normal -1 0 0
    outer loop
      vertex 0 4 0
      vertex 0 1 2
      vertex 0 4 2
    endloop
  endfacet
  facet normal -1 0 0
    outer loop
      vertex 0 0 0
      vertex 0 1 2
      vertex 0 4 0
    endloop
  endfacet
  facet normal -1 0 0
    outer loop
      vertex 0 0 3.8
      vertex 0 1 2
      vertex 0 0 0
    endloop
  endfacet
  facet normal -1 0 0
    outer loop
      vertex 0 1 2
      vertex 0 0 3.8
      vertex 0 1 3.8
    endloop
  endfacet
  facet normal -1 0 0
    outer loop
      vertex 0 10 0
      vertex 0 9 2
      vertex 0 10 3.8
    endloop
  endfacet
  facet normal -1 0 0
    outer loop
      vertex 0 6 0
      vertex 0 9 2
      vertex 0 10 0
    endloop
  endfacet
  facet normal -1 -0 0
    outer loop
      vertex 0 9 2
      vertex 0 6 0
      vertex 0 6 2
    endloop
  endfacet
  facet normal -1 -0 0
    outer loop
      vertex 0 10 3.8
      vertex 0 9 2
      vertex 0 9 3.8
    endloop
  endfacet
  facet normal -0 0 1
    outer loop
      vertex 0 1 3.8
      vertex 13.125 0 3.8
      vertex 13.4583 1 3.8
    endloop
  endfacet
  facet normal 0 0 1
    outer loop
      vertex 13.125 0 3.8
      vertex 0 1 3.8
      vertex 0 0 3.8
    endloop
  endfacet
  facet normal 0 0 1
    outer loop
      vertex 66.5 1 3.8
      vertex 15.125 0 3.8
      vertex 66.5 0 3.8
    endloop
  endfacet
  facet normal 0 -0 1
    outer loop
      vertex 15.125 0 3.8
      vertex 66.5 1 3.8
      vertex 14.7917 1 3.8
    endloop
  endfacet
  facet normal 0 1 0
    outer loop
      vertex 66.5 1 3.8
      vertex 14.7917 1 3.1
      vertex 14.7917 1 3.8
    endloop
  endfacet
  facet normal 0 1 0
    outer loop
      vertex 0 1 2
      vertex 14.7917 1 3.1
      vertex 66.5 1 2
    endloop
  endfacet
  facet normal 0 1 -0
    outer loop
      vertex 66.5 1 2
      vertex 14.7917 1 3.1
      vertex 66.5 1 3.8
    endloop
  endfacet
  facet normal 0 1 -0
    outer loop
      vertex 13.4583 1 3.1
      vertex 0 1 3.8
      vertex 13.4583 1 3.8
    endloop
  endfacet
  facet normal 0 1 0
    outer loop
      vertex 13.4583 1 3.1
      vertex 0 1 2
      vertex 0 1 3.8
    endloop
  endfacet
  facet normal 0 1 0
    outer loop
      vertex 14.7917 1 3.1
      vertex 0 1 2
      vertex 13.4583 1 3.1
    endloop
  endfacet
  facet normal 0 0 1
    outer loop
      vertex 0 9 3.8
      vertex 51.375 10 3.8
      vertex 0 10 3.8
    endloop
  endfacet
  facet normal 0 0 1
    outer loop
      vertex 51.375 10 3.8
      vertex 0 9 3.8
      vertex 51.7083 9 3.8
    endloop
  endfacet
  facet normal -0 0 1
    outer loop
      vertex 53.375 10 3.8
      vertex 66.5 9 3.8
      vertex 66.5 10 3.8
    endloop
  endfacet
  facet normal 0 0 1
    outer loop
      vertex 66.5 9 3.8
      vertex 53.375 10 3.8
      vertex 53.0417 9 3.8
    endloop
  endfacet
  facet normal 0 -1 0
    outer loop
      vertex 0 9 3.8
      vertex 51.7083 9 3.1
      vertex 51.7083 9 3.8
    endloop
  endfacet
  facet normal 0 -1 0
    outer loop
      vertex 66.5 9 2
      vertex 51.7083 9 3.1
      vertex 0 9 2
    endloop
  endfacet
  facet normal 0 -1 0
    outer loop
      vertex 0 9 2
      vertex 51.7083 9 3.1
      vertex 0 9 3.8
    endloop
  endfacet
  facet normal 0 -1 0
    outer loop
      vertex 53.0417 9 3.1
      vertex 66.5 9 3.8
      vertex 53.0417 9 3.8
    endloop
  endfacet
  facet normal 0 -1 0
    outer loop
      vertex 53.0417 9 3.1
      vertex 66.5 9 2
      vertex 66.5 9 3.8
    endloop
  endfacet
  facet normal 0 -1 0
    outer loop
      vertex 51.7083 9 3.1
      vertex 66.5 9 2
      vertex 53.0417 9 3.1
    endloop
  endfacet
  facet normal 0.316228 0.948683 -0
    outer loop
      vertex 0 6 0
      vertex -3 7 2
      vertex 0 6 2
    endloop
  endfacet
  facet normal 0.316228 0.948683 0
    outer loop
      vertex -3 7 2
      vertex 0 6 0
      vertex -3 7 0
    endloop
  endfacet
  facet normal -1 0 0
    outer loop
      vertex -3 3 0
      vertex -3 7 2
      vertex -3 7 0
    endloop
  endfacet
  facet normal -1 -0 0
    outer loop
      vertex -3 7 2
      vertex -3 3 0
      vertex -3 3 2
    endloop
  endfacet
  facet normal 0.316228 -0.948683 0
    outer loop
      vertex -3 3 0
      vertex 0 4 2
      vertex -3 3 2
    endloop
  endfacet
  facet normal 0.316228 -0.948683 0
    outer loop
      vertex 0 4 2
      vertex -3 3 0
      vertex 0 4 0
    endloop
  endfacet
  facet normal -0.316228 -0.948683 0
    outer loop
      vertex 66.5 4 0
      vertex 69.5 3 2
      vertex 66.5 4 2
    endloop
  endfacet
  facet normal -0.316228 -0.948683 -0
    outer loop
      vertex 69.5 3 2
      vertex 66.5 4 0
      vertex 69.5 3 0
    endloop
  endfacet
  facet normal 1 -0 0
    outer loop
      vertex 69.5 3 2
      vertex 69.5 7 0
      vertex 69.5 7 2
    endloop
  endfacet
  facet normal 1 0 0
    outer loop
      vertex 69.5 7 0
      vertex 69.5 3 2
      vertex 69.5 3 0
    endloop
  endfacet
  facet normal -0.316228 0.948683 0
    outer loop
      vertex 69.5 7 0
      vertex 66.5 6 2
      vertex 69.5 7 2
    endloop
  endfacet
  facet normal -0.316228 0.948683 0
    outer loop
      vertex 66.5 6 2
      vertex 69.5 7 0
      vertex 66.5 6 0
    endloop
  endfacet
endsolid OpenSCAD_Model
