solid OpenSCAD_Model
  facet normal 0 0 -1
    outer loop
      vertex 19.7777 -0.659973 9.2
      vertex 60.1918 123.73 9.2
      vertex 60.1918 -0.659973 9.2
    endloop
  endfacet
  facet normal 0 0 -1
    outer loop
      vertex 19.7777 210.452 9.2
      vertex 60.1918 123.73 9.2
      vertex 19.7777 -0.659973 9.2
    endloop
  endfacet
  facet normal 0 0 -1
    outer loop
      vertex 60.1918 123.73 9.2
      vertex 19.7777 210.452 9.2
      vertex 60.1761 125.991 9.2
    endloop
  endfacet
  facet normal 0 0 -1
    outer loop
      vertex 60.1761 125.991 9.2
      vertex 19.7777 210.452 9.2
      vertex 60.1281 128.363 9.2
    endloop
  endfacet
  facet normal 0 0 -1
    outer loop
      vertex 60.1281 128.363 9.2
      vertex 19.7777 210.452 9.2
      vertex 60.0485 130.844 9.2
    endloop
  endfacet
  facet normal 0 0 -1
    outer loop
      vertex 60.0485 130.844 9.2
      vertex 19.7777 210.452 9.2
      vertex 59.937 133.432 9.2
    endloop
  endfacet
  facet normal 0 0 -1
    outer loop
      vertex 59.937 133.432 9.2
      vertex 19.7777 210.452 9.2
      vertex 59.7937 136.129 9.2
    endloop
  endfacet
  facet normal 0 0 -1
    outer loop
      vertex 59.7937 136.129 9.2
      vertex 19.7777 210.452 9.2
      vertex 59.6188 138.935 9.2
    endloop
  endfacet
  facet normal 0 0 -1
    outer loop
      vertex 59.6188 138.935 9.2
      vertex 19.7777 210.452 9.2
      vertex 59.412 141.85 9.2
    endloop
  endfacet
  facet normal 0 0 -1
    outer loop
      vertex 59.412 141.85 9.2
      vertex 19.7777 210.452 9.2
      vertex 59.173 144.873 9.2
    endloop
  endfacet
  facet normal 0 0 -1
    outer loop
      vertex 59.173 144.873 9.2
      vertex 19.7777 210.452 9.2
      vertex 58.9028 148.005 9.2
    endloop
  endfacet
  facet normal 0 0 -1
    outer loop
      vertex 58.9028 148.005 9.2
      vertex 19.7777 210.452 9.2
      vertex 58.6006 151.246 9.2
    endloop
  endfacet
  facet normal 0 0 -1
    outer loop
      vertex 58.6006 151.246 9.2
      vertex 19.7777 210.452 9.2
      vertex 58.2666 154.595 9.2
    endloop
  endfacet
  facet normal 0 0 -1
    outer loop
      vertex 58.2666 154.595 9.2
      vertex 19.7777 210.452 9.2
      vertex 57.9011 158.053 9.2
    endloop
  endfacet
  facet normal 0 0 -1
    outer loop
      vertex 162.605 50.2661 9.2
      vertex 200.728 -0.659973 9.2
      vertex 162.632 50.0338 9.2
    endloop
  endfacet
  facet normal 0 0 -1
    outer loop
      vertex 148.049 -0.659973 9.2
      vertex 162.632 50.0338 9.2
      vertex 200.728 -0.659973 9.2
    endloop
  endfacet
  facet normal 0 0 -1
    outer loop
      vertex 57.8601 158.423 9.2
      vertex 162.632 50.0338 9.2
      vertex 148.049 -0.659973 9.2
    endloop
  endfacet
  facet normal 0 0 -1
    outer loop
      vertex 162.632 50.0338 9.2
      vertex 57.8601 158.423 9.2
      vertex 71.0911 210.452 9.2
    endloop
  endfacet
  facet normal 0 0 -1
    outer loop
      vertex 57.8601 158.423 9.2
      vertex 19.7777 210.452 9.2
      vertex 71.0911 210.452 9.2
    endloop
  endfacet
  facet normal 0 0 -1
    outer loop
      vertex 57.9011 158.053 9.2
      vertex 19.7777 210.452 9.2
      vertex 57.8601 158.423 9.2
    endloop
  endfacet
  facet normal 0 0 -1
    outer loop
      vertex 162.239 53.6586 9.2
      vertex 200.728 -0.659973 9.2
      vertex 162.605 50.2661 9.2
    endloop
  endfacet
  facet normal 0 0 -1
    outer loop
      vertex 161.905 57.0038 9.2
      vertex 200.728 -0.659973 9.2
      vertex 162.239 53.6586 9.2
    endloop
  endfacet
  facet normal 0 0 -1
    outer loop
      vertex 161.603 60.3016 9.2
      vertex 200.728 -0.659973 9.2
      vertex 161.905 57.0038 9.2
    endloop
  endfacet
  facet normal 0 0 -1
    outer loop
      vertex 161.332 63.5518 9.2
      vertex 200.728 -0.659973 9.2
      vertex 161.603 60.3016 9.2
    endloop
  endfacet
  facet normal 0 0 -1
    outer loop
      vertex 161.094 66.7546 9.2
      vertex 200.728 -0.659973 9.2
      vertex 161.332 63.5518 9.2
    endloop
  endfacet
  facet normal 0 0 -1
    outer loop
      vertex 160.887 69.9098 9.2
      vertex 200.728 -0.659973 9.2
      vertex 161.094 66.7546 9.2
    endloop
  endfacet
  facet normal 0 0 -1
    outer loop
      vertex 160.712 73.018 9.2
      vertex 200.728 -0.659973 9.2
      vertex 160.887 69.9098 9.2
    endloop
  endfacet
  facet normal 0 0 -1
    outer loop
      vertex 160.569 76.0785 9.2
      vertex 200.728 -0.659973 9.2
      vertex 160.712 73.018 9.2
    endloop
  endfacet
  facet normal 0 0 -1
    outer loop
      vertex 160.457 79.0914 9.2
      vertex 200.728 -0.659973 9.2
      vertex 160.569 76.0785 9.2
    endloop
  endfacet
  facet normal 0 0 -1
    outer loop
      vertex 160.378 82.0572 9.2
      vertex 200.728 -0.659973 9.2
      vertex 160.457 79.0914 9.2
    endloop
  endfacet
  facet normal 0 0 -1
    outer loop
      vertex 160.33 84.9751 9.2
      vertex 200.728 -0.659973 9.2
      vertex 160.378 82.0572 9.2
    endloop
  endfacet
  facet normal 0 0 -1
    outer loop
      vertex 160.314 87.8439 9.2
      vertex 200.728 -0.659973 9.2
      vertex 160.33 84.9751 9.2
    endloop
  endfacet
  facet normal 0 0 -1
    outer loop
      vertex 200.728 -0.659973 9.2
      vertex 160.314 87.8439 9.2
      vertex 200.728 210.452 9.2
    endloop
  endfacet
  facet normal -0 0 -1
    outer loop
      vertex 200.728 210.452 9.2
      vertex 160.314 87.8439 9.2
      vertex 160.314 210.452 9.2
    endloop
  endfacet
  facet normal -0 0 1
    outer loop
      vertex 159.654 87.8422 10
      vertex 201.388 -1.31995 10
      vertex 201.388 211.112 10
    endloop
  endfacet
  facet normal 0 0 1
    outer loop
      vertex 201.388 -1.31995 10
      vertex 161.583 53.5904 10
      vertex 161.634 53.1137 10
    endloop
  endfacet
  facet normal 0 0 1
    outer loop
      vertex 201.388 -1.31995 10
      vertex 161.248 56.9406 10
      vertex 161.583 53.5904 10
    endloop
  endfacet
  facet normal 0 0 1
    outer loop
      vertex 201.388 -1.31995 10
      vertex 160.945 60.2442 10
      vertex 161.248 56.9406 10
    endloop
  endfacet
  facet normal 0 0 1
    outer loop
      vertex 201.388 -1.31995 10
      vertex 160.674 63.5001 10
      vertex 160.945 60.2442 10
    endloop
  endfacet
  facet normal 0 0 1
    outer loop
      vertex 201.388 -1.31995 10
      vertex 160.435 66.7083 10
      vertex 160.674 63.5001 10
    endloop
  endfacet
  facet normal 0 0 1
    outer loop
      vertex 201.388 -1.31995 10
      vertex 160.228 69.8699 10
      vertex 160.435 66.7083 10
    endloop
  endfacet
  facet normal 0 0 1
    outer loop
      vertex 201.388 -1.31995 10
      vertex 160.053 72.9838 10
      vertex 160.228 69.8699 10
    endloop
  endfacet
  facet normal 0 0 1
    outer loop
      vertex 201.388 -1.31995 10
      vertex 159.909 76.0507 10
      vertex 160.053 72.9838 10
    endloop
  endfacet
  facet normal 0 0 1
    outer loop
      vertex 201.388 -1.31995 10
      vertex 159.797 79.0706 10
      vertex 159.909 76.0507 10
    endloop
  endfacet
  facet normal 0 0 1
    outer loop
      vertex 201.388 -1.31995 10
      vertex 159.718 82.0428 10
      vertex 159.797 79.0706 10
    endloop
  endfacet
  facet normal 0 0 1
    outer loop
      vertex 201.388 -1.31995 10
      vertex 159.67 84.968 10
      vertex 159.718 82.0428 10
    endloop
  endfacet
  facet normal 0 0 1
    outer loop
      vertex 159.654 87.8422 10
      vertex 201.388 211.112 10
      vertex 159.654 211.112 10
    endloop
  endfacet
  facet normal 0 0 1
    outer loop
      vertex 201.388 -1.31995 10
      vertex 159.654 87.8422 10
      vertex 159.67 84.968 10
    endloop
  endfacet
  facet normal 0 0 1
    outer loop
      vertex 161.634 53.1137 10
      vertex 147.665 -1.31995 10
      vertex 201.388 -1.31995 10
    endloop
  endfacet
  facet normal -0 0 1
    outer loop
      vertex 58.8521 155.334 10
      vertex 161.634 53.1137 10
      vertex 71.4742 211.112 10
    endloop
  endfacet
  facet normal 0 0 1
    outer loop
      vertex 161.634 53.1137 10
      vertex 58.8521 155.334 10
      vertex 147.665 -1.31995 10
    endloop
  endfacet
  facet normal 0 -0 1
    outer loop
      vertex 58.8521 155.334 10
      vertex 71.4742 211.112 10
      vertex 19.1177 211.112 10
    endloop
  endfacet
  facet normal 0 0 1
    outer loop
      vertex 19.1177 211.112 10
      vertex 60.8518 123.733 10
      vertex 60.836 126 10
    endloop
  endfacet
  facet normal 0 0 1
    outer loop
      vertex 19.1177 211.112 10
      vertex 60.836 126 10
      vertex 60.788 128.381 10
    endloop
  endfacet
  facet normal 0 0 1
    outer loop
      vertex 19.1177 211.112 10
      vertex 60.788 128.381 10
      vertex 60.7078 130.868 10
    endloop
  endfacet
  facet normal 0 0 1
    outer loop
      vertex 19.1177 211.112 10
      vertex 60.7078 130.868 10
      vertex 60.5963 133.464 10
    endloop
  endfacet
  facet normal 0 0 1
    outer loop
      vertex 19.1177 211.112 10
      vertex 60.5963 133.464 10
      vertex 60.4527 136.168 10
    endloop
  endfacet
  facet normal 0 0 1
    outer loop
      vertex 19.1177 211.112 10
      vertex 60.4527 136.168 10
      vertex 60.2771 138.979 10
    endloop
  endfacet
  facet normal 0 0 1
    outer loop
      vertex 19.1177 211.112 10
      vertex 60.2771 138.979 10
      vertex 60.07 141.899 10
    endloop
  endfacet
  facet normal 0 0 1
    outer loop
      vertex 19.1177 211.112 10
      vertex 60.07 141.899 10
      vertex 59.831 144.928 10
    endloop
  endfacet
  facet normal 0 0 1
    outer loop
      vertex 19.1177 211.112 10
      vertex 59.831 144.928 10
      vertex 59.5601 148.064 10
    endloop
  endfacet
  facet normal 0 0 1
    outer loop
      vertex 19.1177 211.112 10
      vertex 59.5601 148.064 10
      vertex 59.2576 151.309 10
    endloop
  endfacet
  facet normal 0 0 1
    outer loop
      vertex 19.1177 211.112 10
      vertex 59.2576 151.309 10
      vertex 58.9232 154.663 10
    endloop
  endfacet
  facet normal 0 0 1
    outer loop
      vertex 19.1177 211.112 10
      vertex 58.9232 154.663 10
      vertex 58.8521 155.334 10
    endloop
  endfacet
  facet normal 0 0 1
    outer loop
      vertex 60.8518 123.733 10
      vertex 19.1177 211.112 10
      vertex 19.1177 -1.31995 10
    endloop
  endfacet
  facet normal 0 0 1
    outer loop
      vertex 60.8518 123.733 10
      vertex 19.1177 -1.31995 10
      vertex 60.8518 -1.31995 10
    endloop
  endfacet
  facet normal -0.999976 -0.00694366 0
    outer loop
      vertex 60.1918 123.73 0
      vertex 60.1761 125.991 9.2
      vertex 60.1761 125.991 0
    endloop
  endfacet
  facet normal -0.999976 -0.00694366 0
    outer loop
      vertex 60.1761 125.991 9.2
      vertex 60.1918 123.73 0
      vertex 60.1918 123.73 9.2
    endloop
  endfacet
  facet normal -0.999795 -0.0202319 0
    outer loop
      vertex 60.1761 125.991 0
      vertex 60.1281 128.363 9.2
      vertex 60.1281 128.363 0
    endloop
  endfacet
  facet normal -0.999795 -0.0202319 0
    outer loop
      vertex 60.1281 128.363 9.2
      vertex 60.1761 125.991 0
      vertex 60.1761 125.991 9.2
    endloop
  endfacet
  facet normal -0.999486 -0.0320673 0
    outer loop
      vertex 60.1281 128.363 0
      vertex 60.0485 130.844 9.2
      vertex 60.0485 130.844 0
    endloop
  endfacet
  facet normal -0.999486 -0.0320673 0
    outer loop
      vertex 60.0485 130.844 9.2
      vertex 60.1281 128.363 0
      vertex 60.1281 128.363 9.2
    endloop
  endfacet
  facet normal -0.999073 -0.0430435 0
    outer loop
      vertex 60.0485 130.844 0
      vertex 59.937 133.432 9.2
      vertex 59.937 133.432 0
    endloop
  endfacet
  facet normal -0.999073 -0.0430435 0
    outer loop
      vertex 59.937 133.432 9.2
      vertex 60.0485 130.844 0
      vertex 60.0485 130.844 9.2
    endloop
  endfacet
  facet normal -0.998591 -0.0530583 0
    outer loop
      vertex 59.937 133.432 0
      vertex 59.7937 136.129 9.2
      vertex 59.7937 136.129 0
    endloop
  endfacet
  facet normal -0.998591 -0.0530583 0
    outer loop
      vertex 59.7937 136.129 9.2
      vertex 59.937 133.432 0
      vertex 59.937 133.432 9.2
    endloop
  endfacet
  facet normal -0.998063 -0.06221 0
    outer loop
      vertex 59.7937 136.129 0
      vertex 59.6188 138.935 9.2
      vertex 59.6188 138.935 0
    endloop
  endfacet
  facet normal -0.998063 -0.06221 0
    outer loop
      vertex 59.6188 138.935 9.2
      vertex 59.7937 136.129 0
      vertex 59.7937 136.129 9.2
    endloop
  endfacet
  facet normal -0.997493 -0.0707655 0
    outer loop
      vertex 59.6188 138.935 0
      vertex 59.412 141.85 9.2
      vertex 59.412 141.85 0
    endloop
  endfacet
  facet normal -0.997493 -0.0707655 0
    outer loop
      vertex 59.412 141.85 9.2
      vertex 59.6188 138.935 0
      vertex 59.6188 138.935 9.2
    endloop
  endfacet
  facet normal -0.996889 -0.0788146 0
    outer loop
      vertex 59.412 141.85 0
      vertex 59.173 144.873 9.2
      vertex 59.173 144.873 0
    endloop
  endfacet
  facet normal -0.996889 -0.0788146 0
    outer loop
      vertex 59.173 144.873 9.2
      vertex 59.412 141.85 0
      vertex 59.412 141.85 9.2
    endloop
  endfacet
  facet normal -0.996299 -0.0859515 0
    outer loop
      vertex 59.173 144.873 0
      vertex 58.9028 148.005 9.2
      vertex 58.9028 148.005 0
    endloop
  endfacet
  facet normal -0.996299 -0.0859515 0
    outer loop
      vertex 58.9028 148.005 9.2
      vertex 59.173 144.873 0
      vertex 59.173 144.873 9.2
    endloop
  endfacet
  facet normal -0.995681 -0.0928401 0
    outer loop
      vertex 58.9028 148.005 0
      vertex 58.6006 151.246 9.2
      vertex 58.6006 151.246 0
    endloop
  endfacet
  facet normal -0.995681 -0.0928401 0
    outer loop
      vertex 58.6006 151.246 9.2
      vertex 58.9028 148.005 0
      vertex 58.9028 148.005 9.2
    endloop
  endfacet
  facet normal -0.995064 -0.099239 0
    outer loop
      vertex 58.6006 151.246 0
      vertex 58.2666 154.595 9.2
      vertex 58.2666 154.595 0
    endloop
  endfacet
  facet normal -0.995064 -0.099239 0
    outer loop
      vertex 58.2666 154.595 9.2
      vertex 58.6006 151.246 0
      vertex 58.6006 151.246 9.2
    endloop
  endfacet
  facet normal -0.99446 -0.105111 0
    outer loop
      vertex 58.2666 154.595 0
      vertex 57.9011 158.053 9.2
      vertex 57.9011 158.053 0
    endloop
  endfacet
  facet normal -0.99446 -0.105111 0
    outer loop
      vertex 57.9011 158.053 9.2
      vertex 58.2666 154.595 0
      vertex 58.2666 154.595 9.2
    endloop
  endfacet
  facet normal -0.993916 -0.110137 0
    outer loop
      vertex 57.9011 158.053 0
      vertex 57.8601 158.423 9.2
      vertex 57.8601 158.423 0
    endloop
  endfacet
  facet normal -0.993916 -0.110137 0
    outer loop
      vertex 57.8601 158.423 9.2
      vertex 57.9011 158.053 0
      vertex 57.9011 158.053 9.2
    endloop
  endfacet
  facet normal 0.869924 0.493186 0
    outer loop
      vertex 148.049 -0.659973 9.2
      vertex 57.8601 158.423 0
      vertex 57.8601 158.423 9.2
    endloop
  endfacet
  facet normal 0.869924 0.493186 0
    outer loop
      vertex 57.8601 158.423 0
      vertex 148.049 -0.659973 9.2
      vertex 148.049 -0.659973 0
    endloop
  endfacet
  facet normal 0 1 -0
    outer loop
      vertex 200.728 -0.659973 0
      vertex 148.049 -0.659973 9.2
      vertex 200.728 -0.659973 9.2
    endloop
  endfacet
  facet normal 0 1 0
    outer loop
      vertex 148.049 -0.659973 9.2
      vertex 200.728 -0.659973 0
      vertex 148.049 -0.659973 0
    endloop
  endfacet
  facet normal -1 0 0
    outer loop
      vertex 200.728 -0.659973 0
      vertex 200.728 210.452 9.2
      vertex 200.728 210.452 0
    endloop
  endfacet
  facet normal -1 -0 0
    outer loop
      vertex 200.728 210.452 9.2
      vertex 200.728 -0.659973 0
      vertex 200.728 -0.659973 9.2
    endloop
  endfacet
  facet normal 0 -1 0
    outer loop
      vertex 160.314 210.452 0
      vertex 200.728 210.452 9.2
      vertex 160.314 210.452 9.2
    endloop
  endfacet
  facet normal 0 -1 -0
    outer loop
      vertex 200.728 210.452 9.2
      vertex 160.314 210.452 0
      vertex 200.728 210.452 0
    endloop
  endfacet
  facet normal 1 -0 0
    outer loop
      vertex 160.314 87.8439 9.2
      vertex 160.314 210.452 0
      vertex 160.314 210.452 9.2
    endloop
  endfacet
  facet normal 1 0 0
    outer loop
      vertex 160.314 210.452 0
      vertex 160.314 87.8439 9.2
      vertex 160.314 87.8439 0
    endloop
  endfacet
  facet normal 0.999984 0.00557716 0
    outer loop
      vertex 160.33 84.9751 9.2
      vertex 160.314 87.8439 0
      vertex 160.314 87.8439 9.2
    endloop
  endfacet
  facet normal 0.999984 0.00557716 0
    outer loop
      vertex 160.314 87.8439 0
      vertex 160.33 84.9751 9.2
      vertex 160.33 84.9751 0
    endloop
  endfacet
  facet normal 0.999865 0.016448 0
    outer loop
      vertex 160.378 82.0572 9.2
      vertex 160.33 84.9751 0
      vertex 160.33 84.9751 9.2
    endloop
  endfacet
  facet normal 0.999865 0.016448 0
    outer loop
      vertex 160.33 84.9751 0
      vertex 160.378 82.0572 9.2
      vertex 160.378 82.0572 0
    endloop
  endfacet
  facet normal 0.999645 0.0266276 0
    outer loop
      vertex 160.457 79.0914 9.2
      vertex 160.378 82.0572 0
      vertex 160.378 82.0572 9.2
    endloop
  endfacet
  facet normal 0.999645 0.0266276 0
    outer loop
      vertex 160.378 82.0572 0
      vertex 160.457 79.0914 9.2
      vertex 160.457 79.0914 0
    endloop
  endfacet
  facet normal 0.99931 0.0371478 0
    outer loop
      vertex 160.569 76.0785 9.2
      vertex 160.457 79.0914 0
      vertex 160.457 79.0914 9.2
    endloop
  endfacet
  facet normal 0.99931 0.0371478 0
    outer loop
      vertex 160.457 79.0914 0
      vertex 160.569 76.0785 9.2
      vertex 160.569 76.0785 0
    endloop
  endfacet
  facet normal 0.99891 0.0466735 0
    outer loop
      vertex 160.712 73.018 9.2
      vertex 160.569 76.0785 0
      vertex 160.569 76.0785 9.2
    endloop
  endfacet
  facet normal 0.99891 0.0466735 0
    outer loop
      vertex 160.569 76.0785 0
      vertex 160.712 73.018 9.2
      vertex 160.712 73.018 0
    endloop
  endfacet
  facet normal 0.998419 0.0562137 0
    outer loop
      vertex 160.887 69.9098 9.2
      vertex 160.712 73.018 0
      vertex 160.712 73.018 9.2
    endloop
  endfacet
  facet normal 0.998419 0.0562137 0
    outer loop
      vertex 160.712 73.018 0
      vertex 160.887 69.9098 9.2
      vertex 160.887 69.9098 0
    endloop
  endfacet
  facet normal 0.997855 0.0654652 0
    outer loop
      vertex 161.094 66.7546 9.2
      vertex 160.887 69.9098 0
      vertex 160.887 69.9098 9.2
    endloop
  endfacet
  facet normal 0.997855 0.0654652 0
    outer loop
      vertex 160.887 69.9098 0
      vertex 161.094 66.7546 9.2
      vertex 161.094 66.7546 0
    endloop
  endfacet
  facet normal 0.99725 0.0741057 0
    outer loop
      vertex 161.332 63.5518 9.2
      vertex 161.094 66.7546 0
      vertex 161.094 66.7546 9.2
    endloop
  endfacet
  facet normal 0.99725 0.0741057 0
    outer loop
      vertex 161.094 66.7546 0
      vertex 161.332 63.5518 9.2
      vertex 161.332 63.5518 0
    endloop
  endfacet
  facet normal 0.996542 0.0830912 0
    outer loop
      vertex 161.603 60.3016 9.2
      vertex 161.332 63.5518 0
      vertex 161.332 63.5518 9.2
    endloop
  endfacet
  facet normal 0.996542 0.0830912 0
    outer loop
      vertex 161.332 63.5518 0
      vertex 161.603 60.3016 9.2
      vertex 161.603 60.3016 0
    endloop
  endfacet
  facet normal 0.995833 0.0911946 0
    outer loop
      vertex 161.905 57.0038 9.2
      vertex 161.603 60.3016 0
      vertex 161.603 60.3016 9.2
    endloop
  endfacet
  facet normal 0.995833 0.0911946 0
    outer loop
      vertex 161.603 60.3016 0
      vertex 161.905 57.0038 9.2
      vertex 161.905 57.0038 0
    endloop
  endfacet
  facet normal 0.995052 0.0993506 0
    outer loop
      vertex 162.239 53.6586 9.2
      vertex 161.905 57.0038 0
      vertex 161.905 57.0038 9.2
    endloop
  endfacet
  facet normal 0.995052 0.0993506 0
    outer loop
      vertex 161.905 57.0038 0
      vertex 162.239 53.6586 9.2
      vertex 162.239 53.6586 0
    endloop
  endfacet
  facet normal 0.994231 0.107263 0
    outer loop
      vertex 162.605 50.2661 9.2
      vertex 162.239 53.6586 0
      vertex 162.239 53.6586 9.2
    endloop
  endfacet
  facet normal 0.994231 0.107263 0
    outer loop
      vertex 162.239 53.6586 0
      vertex 162.605 50.2661 9.2
      vertex 162.605 50.2661 0
    endloop
  endfacet
  facet normal 0.993313 0.115452 0
    outer loop
      vertex 162.632 50.0338 9.2
      vertex 162.605 50.2661 0
      vertex 162.605 50.2661 9.2
    endloop
  endfacet
  facet normal 0.993313 0.115452 0
    outer loop
      vertex 162.605 50.2661 0
      vertex 162.632 50.0338 9.2
      vertex 162.632 50.0338 0
    endloop
  endfacet
  facet normal -0.868538 -0.495622 0
    outer loop
      vertex 162.632 50.0338 0
      vertex 71.0911 210.452 9.2
      vertex 71.0911 210.452 0
    endloop
  endfacet
  facet normal -0.868538 -0.495622 0
    outer loop
      vertex 71.0911 210.452 9.2
      vertex 162.632 50.0338 0
      vertex 162.632 50.0338 9.2
    endloop
  endfacet
  facet normal 0 -1 0
    outer loop
      vertex 19.7777 210.452 0
      vertex 71.0911 210.452 9.2
      vertex 19.7777 210.452 9.2
    endloop
  endfacet
  facet normal 0 -1 -0
    outer loop
      vertex 71.0911 210.452 9.2
      vertex 19.7777 210.452 0
      vertex 71.0911 210.452 0
    endloop
  endfacet
  facet normal 1 -0 0
    outer loop
      vertex 19.7777 -0.659973 9.2
      vertex 19.7777 210.452 0
      vertex 19.7777 210.452 9.2
    endloop
  endfacet
  facet normal 1 0 0
    outer loop
      vertex 19.7777 210.452 0
      vertex 19.7777 -0.659973 9.2
      vertex 19.7777 -0.659973 0
    endloop
  endfacet
  facet normal 0 1 -0
    outer loop
      vertex 60.1918 -0.659973 0
      vertex 19.7777 -0.659973 9.2
      vertex 60.1918 -0.659973 9.2
    endloop
  endfacet
  facet normal 0 1 0
    outer loop
      vertex 19.7777 -0.659973 9.2
      vertex 60.1918 -0.659973 0
      vertex 19.7777 -0.659973 0
    endloop
  endfacet
  facet normal -1 0 0
    outer loop
      vertex 60.1918 -0.659973 0
      vertex 60.1918 123.73 9.2
      vertex 60.1918 123.73 0
    endloop
  endfacet
  facet normal -1 -0 0
    outer loop
      vertex 60.1918 123.73 9.2
      vertex 60.1918 -0.659973 0
      vertex 60.1918 -0.659973 9.2
    endloop
  endfacet
  facet normal 0 0 -1
    outer loop
      vertex 60.1918 -0.659973 0
      vertex 60.8518 123.733 0
      vertex 60.8518 -1.31995 0
    endloop
  endfacet
  facet normal -0 0 -1
    outer loop
      vertex 60.8518 123.733 0
      vertex 60.1918 123.73 0
      vertex 60.836 126 0
    endloop
  endfacet
  facet normal 0 0 -1
    outer loop
      vertex 60.1761 125.991 0
      vertex 60.836 126 0
      vertex 60.1918 123.73 0
    endloop
  endfacet
  facet normal -0 0 -1
    outer loop
      vertex 60.836 126 0
      vertex 60.1761 125.991 0
      vertex 60.788 128.381 0
    endloop
  endfacet
  facet normal 0 0 -1
    outer loop
      vertex 60.1281 128.363 0
      vertex 60.788 128.381 0
      vertex 60.1761 125.991 0
    endloop
  endfacet
  facet normal -0 0 -1
    outer loop
      vertex 60.788 128.381 0
      vertex 60.1281 128.363 0
      vertex 60.7078 130.868 0
    endloop
  endfacet
  facet normal 0 0 -1
    outer loop
      vertex 60.8518 123.733 0
      vertex 60.1918 -0.659973 0
      vertex 60.1918 123.73 0
    endloop
  endfacet
  facet normal 0 0 -1
    outer loop
      vertex 60.8518 -1.31995 0
      vertex 19.7777 -0.659973 0
      vertex 60.1918 -0.659973 0
    endloop
  endfacet
  facet normal -0 0 -1
    outer loop
      vertex 19.7777 -0.659973 0
      vertex 19.1177 -1.31995 0
      vertex 19.7777 210.452 0
    endloop
  endfacet
  facet normal 0 0 -1
    outer loop
      vertex 19.1177 -1.31995 0
      vertex 19.7777 -0.659973 0
      vertex 60.8518 -1.31995 0
    endloop
  endfacet
  facet normal 0 0 -1
    outer loop
      vertex 60.0485 130.844 0
      vertex 60.7078 130.868 0
      vertex 60.1281 128.363 0
    endloop
  endfacet
  facet normal -0 0 -1
    outer loop
      vertex 60.7078 130.868 0
      vertex 60.0485 130.844 0
      vertex 60.5963 133.464 0
    endloop
  endfacet
  facet normal 0 0 -1
    outer loop
      vertex 59.937 133.432 0
      vertex 60.5963 133.464 0
      vertex 60.0485 130.844 0
    endloop
  endfacet
  facet normal -0 0 -1
    outer loop
      vertex 60.5963 133.464 0
      vertex 59.937 133.432 0
      vertex 60.4527 136.168 0
    endloop
  endfacet
  facet normal 0 0 -1
    outer loop
      vertex 59.7937 136.129 0
      vertex 60.4527 136.168 0
      vertex 59.937 133.432 0
    endloop
  endfacet
  facet normal -0 0 -1
    outer loop
      vertex 60.4527 136.168 0
      vertex 59.7937 136.129 0
      vertex 60.2771 138.979 0
    endloop
  endfacet
  facet normal 0 0 -1
    outer loop
      vertex 59.6188 138.935 0
      vertex 60.2771 138.979 0
      vertex 59.7937 136.129 0
    endloop
  endfacet
  facet normal -0 0 -1
    outer loop
      vertex 60.2771 138.979 0
      vertex 59.6188 138.935 0
      vertex 60.07 141.899 0
    endloop
  endfacet
  facet normal 0 0 -1
    outer loop
      vertex 59.412 141.85 0
      vertex 60.07 141.899 0
      vertex 59.6188 138.935 0
    endloop
  endfacet
  facet normal -0 0 -1
    outer loop
      vertex 60.07 141.899 0
      vertex 59.412 141.85 0
      vertex 59.831 144.928 0
    endloop
  endfacet
  facet normal 0 0 -1
    outer loop
      vertex 59.173 144.873 0
      vertex 59.831 144.928 0
      vertex 59.412 141.85 0
    endloop
  endfacet
  facet normal -0 0 -1
    outer loop
      vertex 59.831 144.928 0
      vertex 59.173 144.873 0
      vertex 59.5601 148.064 0
    endloop
  endfacet
  facet normal 0 0 -1
    outer loop
      vertex 58.9028 148.005 0
      vertex 59.5601 148.064 0
      vertex 59.173 144.873 0
    endloop
  endfacet
  facet normal -0 0 -1
    outer loop
      vertex 59.5601 148.064 0
      vertex 58.9028 148.005 0
      vertex 59.2576 151.309 0
    endloop
  endfacet
  facet normal 0 0 -1
    outer loop
      vertex 58.6006 151.246 0
      vertex 59.2576 151.309 0
      vertex 58.9028 148.005 0
    endloop
  endfacet
  facet normal -0 0 -1
    outer loop
      vertex 59.2576 151.309 0
      vertex 58.6006 151.246 0
      vertex 58.9232 154.663 0
    endloop
  endfacet
  facet normal 0 0 -1
    outer loop
      vertex 58.2666 154.595 0
      vertex 58.9232 154.663 0
      vertex 58.6006 151.246 0
    endloop
  endfacet
  facet normal 0 0 -1
    outer loop
      vertex 161.583 53.5904 0
      vertex 162.239 53.6586 0
      vertex 161.634 53.1137 0
    endloop
  endfacet
  facet normal 0 0 -1
    outer loop
      vertex 162.605 50.2661 0
      vertex 161.634 53.1137 0
      vertex 162.239 53.6586 0
    endloop
  endfacet
  facet normal 0 0 -1
    outer loop
      vertex 162.632 50.0338 0
      vertex 161.634 53.1137 0
      vertex 162.605 50.2661 0
    endloop
  endfacet
  facet normal 0 0 -1
    outer loop
      vertex 71.0911 210.452 0
      vertex 161.634 53.1137 0
      vertex 162.632 50.0338 0
    endloop
  endfacet
  facet normal 0 0 -1
    outer loop
      vertex 161.634 53.1137 0
      vertex 71.0911 210.452 0
      vertex 71.4742 211.112 0
    endloop
  endfacet
  facet normal 0 0 -1
    outer loop
      vertex 19.7777 210.452 0
      vertex 71.4742 211.112 0
      vertex 71.0911 210.452 0
    endloop
  endfacet
  facet normal 0 0 -1
    outer loop
      vertex 19.7777 210.452 0
      vertex 19.1177 211.112 0
      vertex 71.4742 211.112 0
    endloop
  endfacet
  facet normal 0 0 -1
    outer loop
      vertex 19.1177 211.112 0
      vertex 19.7777 210.452 0
      vertex 19.1177 -1.31995 0
    endloop
  endfacet
  facet normal -0 0 -1
    outer loop
      vertex 162.239 53.6586 0
      vertex 161.583 53.5904 0
      vertex 161.905 57.0038 0
    endloop
  endfacet
  facet normal 0 0 -1
    outer loop
      vertex 161.248 56.9406 0
      vertex 161.905 57.0038 0
      vertex 161.583 53.5904 0
    endloop
  endfacet
  facet normal -0 0 -1
    outer loop
      vertex 161.905 57.0038 0
      vertex 161.248 56.9406 0
      vertex 161.603 60.3016 0
    endloop
  endfacet
  facet normal 0 0 -1
    outer loop
      vertex 160.945 60.2442 0
      vertex 161.603 60.3016 0
      vertex 161.248 56.9406 0
    endloop
  endfacet
  facet normal -0 0 -1
    outer loop
      vertex 161.603 60.3016 0
      vertex 160.945 60.2442 0
      vertex 161.332 63.5518 0
    endloop
  endfacet
  facet normal 0 0 -1
    outer loop
      vertex 160.674 63.5001 0
      vertex 161.332 63.5518 0
      vertex 160.945 60.2442 0
    endloop
  endfacet
  facet normal -0 0 -1
    outer loop
      vertex 161.332 63.5518 0
      vertex 160.674 63.5001 0
      vertex 161.094 66.7546 0
    endloop
  endfacet
  facet normal 0 0 -1
    outer loop
      vertex 160.435 66.7083 0
      vertex 161.094 66.7546 0
      vertex 160.674 63.5001 0
    endloop
  endfacet
  facet normal -0 0 -1
    outer loop
      vertex 161.094 66.7546 0
      vertex 160.435 66.7083 0
      vertex 160.887 69.9098 0
    endloop
  endfacet
  facet normal 0 0 -1
    outer loop
      vertex 160.228 69.8699 0
      vertex 160.887 69.9098 0
      vertex 160.435 66.7083 0
    endloop
  endfacet
  facet normal -0 0 -1
    outer loop
      vertex 160.887 69.9098 0
      vertex 160.228 69.8699 0
      vertex 160.712 73.018 0
    endloop
  endfacet
  facet normal 0 0 -1
    outer loop
      vertex 160.053 72.9838 0
      vertex 160.712 73.018 0
      vertex 160.228 69.8699 0
    endloop
  endfacet
  facet normal -0 0 -1
    outer loop
      vertex 160.712 73.018 0
      vertex 160.053 72.9838 0
      vertex 160.569 76.0785 0
    endloop
  endfacet
  facet normal 0 0 -1
    outer loop
      vertex 159.909 76.0507 0
      vertex 160.569 76.0785 0
      vertex 160.053 72.9838 0
    endloop
  endfacet
  facet normal -0 0 -1
    outer loop
      vertex 160.457 79.0914 0
      vertex 159.797 79.0706 0
      vertex 160.378 82.0572 0
    endloop
  endfacet
  facet normal 0 0 -1
    outer loop
      vertex 159.797 79.0706 0
      vertex 160.457 79.0914 0
      vertex 159.909 76.0507 0
    endloop
  endfacet
  facet normal -0 0 -1
    outer loop
      vertex 160.569 76.0785 0
      vertex 159.909 76.0507 0
      vertex 160.457 79.0914 0
    endloop
  endfacet
  facet normal 0 0 -1
    outer loop
      vertex 201.388 -1.31995 0
      vertex 200.728 -0.659973 0
      vertex 201.388 211.112 0
    endloop
  endfacet
  facet normal 0 0 -1
    outer loop
      vertex 147.665 -1.31995 0
      vertex 200.728 -0.659973 0
      vertex 201.388 -1.31995 0
    endloop
  endfacet
  facet normal -0 0 -1
    outer loop
      vertex 200.728 -0.659973 0
      vertex 147.665 -1.31995 0
      vertex 148.049 -0.659973 0
    endloop
  endfacet
  facet normal 0 0 -1
    outer loop
      vertex 58.8521 155.334 0
      vertex 148.049 -0.659973 0
      vertex 147.665 -1.31995 0
    endloop
  endfacet
  facet normal -0 0 -1
    outer loop
      vertex 58.9232 154.663 0
      vertex 58.2666 154.595 0
      vertex 58.8521 155.334 0
    endloop
  endfacet
  facet normal 0 0 -1
    outer loop
      vertex 57.9011 158.053 0
      vertex 58.8521 155.334 0
      vertex 58.2666 154.595 0
    endloop
  endfacet
  facet normal 0 0 -1
    outer loop
      vertex 57.8601 158.423 0
      vertex 58.8521 155.334 0
      vertex 57.9011 158.053 0
    endloop
  endfacet
  facet normal 0 0 -1
    outer loop
      vertex 58.8521 155.334 0
      vertex 57.8601 158.423 0
      vertex 148.049 -0.659973 0
    endloop
  endfacet
  facet normal 0 0 -1
    outer loop
      vertex 200.728 210.452 0
      vertex 201.388 211.112 0
      vertex 200.728 -0.659973 0
    endloop
  endfacet
  facet normal 0 0 -1
    outer loop
      vertex 160.314 210.452 0
      vertex 201.388 211.112 0
      vertex 200.728 210.452 0
    endloop
  endfacet
  facet normal 0 0 -1
    outer loop
      vertex 159.718 82.0428 0
      vertex 160.378 82.0572 0
      vertex 159.797 79.0706 0
    endloop
  endfacet
  facet normal -0 0 -1
    outer loop
      vertex 160.378 82.0572 0
      vertex 159.718 82.0428 0
      vertex 160.33 84.9751 0
    endloop
  endfacet
  facet normal 0 0 -1
    outer loop
      vertex 159.67 84.968 0
      vertex 160.33 84.9751 0
      vertex 159.718 82.0428 0
    endloop
  endfacet
  facet normal -0 0 -1
    outer loop
      vertex 160.33 84.9751 0
      vertex 159.67 84.968 0
      vertex 160.314 87.8439 0
    endloop
  endfacet
  facet normal 0 0 -1
    outer loop
      vertex 160.314 87.8439 0
      vertex 159.67 84.968 0
      vertex 159.654 87.8422 0
    endloop
  endfacet
  facet normal -0 0 -1
    outer loop
      vertex 160.314 87.8439 0
      vertex 159.654 87.8422 0
      vertex 160.314 210.452 0
    endloop
  endfacet
  facet normal 0 0 -1
    outer loop
      vertex 160.314 210.452 0
      vertex 159.654 211.112 0
      vertex 201.388 211.112 0
    endloop
  endfacet
  facet normal 0 0 -1
    outer loop
      vertex 159.654 211.112 0
      vertex 160.314 210.452 0
      vertex 159.654 87.8422 0
    endloop
  endfacet
  facet normal 0.999976 0.00696939 0
    outer loop
      vertex 60.8518 123.733 10
      vertex 60.836 126 0
      vertex 60.836 126 10
    endloop
  endfacet
  facet normal 0.999976 0.00696939 0
    outer loop
      vertex 60.836 126 0
      vertex 60.8518 123.733 10
      vertex 60.8518 123.733 0
    endloop
  endfacet
  facet normal 0.999797 0.0201555 0
    outer loop
      vertex 60.836 126 10
      vertex 60.788 128.381 0
      vertex 60.788 128.381 10
    endloop
  endfacet
  facet normal 0.999797 0.0201555 0
    outer loop
      vertex 60.788 128.381 0
      vertex 60.836 126 10
      vertex 60.836 126 0
    endloop
  endfacet
  facet normal 0.99948 0.0322309 0
    outer loop
      vertex 60.788 128.381 10
      vertex 60.7078 130.868 0
      vertex 60.7078 130.868 10
    endloop
  endfacet
  facet normal 0.99948 0.0322309 0
    outer loop
      vertex 60.7078 130.868 0
      vertex 60.788 128.381 10
      vertex 60.788 128.381 0
    endloop
  endfacet
  facet normal 0.999079 0.0429111 0
    outer loop
      vertex 60.7078 130.868 10
      vertex 60.5963 133.464 0
      vertex 60.5963 133.464 10
    endloop
  endfacet
  facet normal 0.999079 0.0429111 0
    outer loop
      vertex 60.5963 133.464 0
      vertex 60.7078 130.868 10
      vertex 60.7078 130.868 0
    endloop
  endfacet
  facet normal 0.998593 0.0530318 0
    outer loop
      vertex 60.5963 133.464 10
      vertex 60.4527 136.168 0
      vertex 60.4527 136.168 10
    endloop
  endfacet
  facet normal 0.998593 0.0530318 0
    outer loop
      vertex 60.4527 136.168 0
      vertex 60.5963 133.464 10
      vertex 60.5963 133.464 0
    endloop
  endfacet
  facet normal 0.998055 0.0623473 0
    outer loop
      vertex 60.4527 136.168 10
      vertex 60.2771 138.979 0
      vertex 60.2771 138.979 10
    endloop
  endfacet
  facet normal 0.998055 0.0623473 0
    outer loop
      vertex 60.2771 138.979 0
      vertex 60.4527 136.168 10
      vertex 60.4527 136.168 0
    endloop
  endfacet
  facet normal 0.997494 0.0707469 0
    outer loop
      vertex 60.2771 138.979 10
      vertex 60.07 141.899 0
      vertex 60.07 141.899 10
    endloop
  endfacet
  facet normal 0.997494 0.0707469 0
    outer loop
      vertex 60.07 141.899 0
      vertex 60.2771 138.979 10
      vertex 60.2771 138.979 0
    endloop
  endfacet
  facet normal 0.996902 0.0786594 0
    outer loop
      vertex 60.07 141.899 10
      vertex 59.831 144.928 0
      vertex 59.831 144.928 10
    endloop
  endfacet
  facet normal 0.996902 0.0786594 0
    outer loop
      vertex 59.831 144.928 0
      vertex 60.07 141.899 10
      vertex 60.07 141.899 0
    endloop
  endfacet
  facet normal 0.99629 0.0860634 0
    outer loop
      vertex 59.831 144.928 10
      vertex 59.5601 148.064 0
      vertex 59.5601 148.064 10
    endloop
  endfacet
  facet normal 0.99629 0.0860634 0
    outer loop
      vertex 59.5601 148.064 0
      vertex 59.831 144.928 10
      vertex 59.831 144.928 0
    endloop
  endfacet
  facet normal 0.995683 0.0928179 0
    outer loop
      vertex 59.5601 148.064 10
      vertex 59.2576 151.309 0
      vertex 59.2576 151.309 10
    endloop
  endfacet
  facet normal 0.995683 0.0928179 0
    outer loop
      vertex 59.2576 151.309 0
      vertex 59.5601 148.064 10
      vertex 59.5601 148.064 0
    endloop
  endfacet
  facet normal 0.995067 0.09921 0
    outer loop
      vertex 59.2576 151.309 10
      vertex 58.9232 154.663 0
      vertex 58.9232 154.663 10
    endloop
  endfacet
  facet normal 0.995067 0.09921 0
    outer loop
      vertex 58.9232 154.663 0
      vertex 59.2576 151.309 10
      vertex 59.2576 151.309 0
    endloop
  endfacet
  facet normal 0.994433 0.105371 0
    outer loop
      vertex 58.9232 154.663 10
      vertex 58.8521 155.334 0
      vertex 58.8521 155.334 10
    endloop
  endfacet
  facet normal 0.994433 0.105371 0
    outer loop
      vertex 58.8521 155.334 0
      vertex 58.9232 154.663 10
      vertex 58.9232 154.663 0
    endloop
  endfacet
  facet normal -0.869921 -0.49319 0
    outer loop
      vertex 147.665 -1.31995 0
      vertex 58.8521 155.334 10
      vertex 58.8521 155.334 0
    endloop
  endfacet
  facet normal -0.869921 -0.49319 0
    outer loop
      vertex 58.8521 155.334 10
      vertex 147.665 -1.31995 0
      vertex 147.665 -1.31995 10
    endloop
  endfacet
  facet normal 0 -1 0
    outer loop
      vertex 147.665 -1.31995 0
      vertex 201.388 -1.31995 10
      vertex 147.665 -1.31995 10
    endloop
  endfacet
  facet normal 0 -1 -0
    outer loop
      vertex 201.388 -1.31995 10
      vertex 147.665 -1.31995 0
      vertex 201.388 -1.31995 0
    endloop
  endfacet
  facet normal 1 -0 0
    outer loop
      vertex 201.388 -1.31995 10
      vertex 201.388 211.112 0
      vertex 201.388 211.112 10
    endloop
  endfacet
  facet normal 1 0 0
    outer loop
      vertex 201.388 211.112 0
      vertex 201.388 -1.31995 10
      vertex 201.388 -1.31995 0
    endloop
  endfacet
  facet normal 0 1 -0
    outer loop
      vertex 201.388 211.112 0
      vertex 159.654 211.112 10
      vertex 201.388 211.112 10
    endloop
  endfacet
  facet normal 0 1 0
    outer loop
      vertex 159.654 211.112 10
      vertex 201.388 211.112 0
      vertex 159.654 211.112 0
    endloop
  endfacet
  facet normal -1 0 0
    outer loop
      vertex 159.654 87.8422 0
      vertex 159.654 211.112 10
      vertex 159.654 211.112 0
    endloop
  endfacet
  facet normal -1 -0 0
    outer loop
      vertex 159.654 211.112 10
      vertex 159.654 87.8422 0
      vertex 159.654 87.8422 10
    endloop
  endfacet
  facet normal -0.999985 -0.00556668 0
    outer loop
      vertex 159.67 84.968 0
      vertex 159.654 87.8422 10
      vertex 159.654 87.8422 0
    endloop
  endfacet
  facet normal -0.999985 -0.00556668 0
    outer loop
      vertex 159.654 87.8422 10
      vertex 159.67 84.968 0
      vertex 159.67 84.968 10
    endloop
  endfacet
  facet normal -0.999865 -0.0164069 0
    outer loop
      vertex 159.718 82.0428 0
      vertex 159.67 84.968 10
      vertex 159.67 84.968 0
    endloop
  endfacet
  facet normal -0.999865 -0.0164069 0
    outer loop
      vertex 159.67 84.968 10
      vertex 159.718 82.0428 0
      vertex 159.718 82.0428 10
    endloop
  endfacet
  facet normal -0.999647 -0.0265703 0
    outer loop
      vertex 159.797 79.0706 0
      vertex 159.718 82.0428 10
      vertex 159.718 82.0428 0
    endloop
  endfacet
  facet normal -0.999647 -0.0265703 0
    outer loop
      vertex 159.718 82.0428 10
      vertex 159.797 79.0706 0
      vertex 159.797 79.0706 10
    endloop
  endfacet
  facet normal -0.999313 -0.0370618 0
    outer loop
      vertex 159.909 76.0507 0
      vertex 159.797 79.0706 10
      vertex 159.797 79.0706 0
    endloop
  endfacet
  facet normal -0.999313 -0.0370618 0
    outer loop
      vertex 159.797 79.0706 10
      vertex 159.909 76.0507 0
      vertex 159.909 76.0507 10
    endloop
  endfacet
  facet normal -0.9989 -0.0469013 0
    outer loop
      vertex 160.053 72.9838 0
      vertex 159.909 76.0507 10
      vertex 159.909 76.0507 0
    endloop
  endfacet
  facet normal -0.9989 -0.0469013 0
    outer loop
      vertex 159.909 76.0507 10
      vertex 160.053 72.9838 0
      vertex 160.053 72.9838 10
    endloop
  endfacet
  facet normal -0.998425 -0.0561111 0
    outer loop
      vertex 160.228 69.8699 0
      vertex 160.053 72.9838 10
      vertex 160.053 72.9838 0
    endloop
  endfacet
  facet normal -0.998425 -0.0561111 0
    outer loop
      vertex 160.053 72.9838 10
      vertex 160.228 69.8699 0
      vertex 160.228 69.8699 10
    endloop
  endfacet
  facet normal -0.997863 -0.0653333 0
    outer loop
      vertex 160.435 66.7083 0
      vertex 160.228 69.8699 10
      vertex 160.228 69.8699 0
    endloop
  endfacet
  facet normal -0.997863 -0.0653333 0
    outer loop
      vertex 160.228 69.8699 10
      vertex 160.435 66.7083 0
      vertex 160.435 66.7083 10
    endloop
  endfacet
  facet normal -0.997237 -0.0742907 0
    outer loop
      vertex 160.674 63.5001 0
      vertex 160.435 66.7083 10
      vertex 160.435 66.7083 0
    endloop
  endfacet
  facet normal -0.997237 -0.0742907 0
    outer loop
      vertex 160.435 66.7083 10
      vertex 160.674 63.5001 0
      vertex 160.674 63.5001 10
    endloop
  endfacet
  facet normal -0.996554 -0.0829467 0
    outer loop
      vertex 160.945 60.2442 0
      vertex 160.674 63.5001 10
      vertex 160.674 63.5001 0
    endloop
  endfacet
  facet normal -0.996554 -0.0829467 0
    outer loop
      vertex 160.674 63.5001 10
      vertex 160.945 60.2442 0
      vertex 160.945 60.2442 10
    endloop
  endfacet
  facet normal -0.99582 -0.0913348 0
    outer loop
      vertex 161.248 56.9406 0
      vertex 160.945 60.2442 10
      vertex 160.945 60.2442 0
    endloop
  endfacet
  facet normal -0.99582 -0.0913348 0
    outer loop
      vertex 160.945 60.2442 10
      vertex 161.248 56.9406 0
      vertex 161.248 56.9406 10
    endloop
  endfacet
  facet normal -0.995038 -0.0994978 0
    outer loop
      vertex 161.583 53.5904 0
      vertex 161.248 56.9406 10
      vertex 161.248 56.9406 0
    endloop
  endfacet
  facet normal -0.995038 -0.0994978 0
    outer loop
      vertex 161.248 56.9406 10
      vertex 161.583 53.5904 0
      vertex 161.583 53.5904 10
    endloop
  endfacet
  facet normal -0.994326 -0.106378 0
    outer loop
      vertex 161.634 53.1137 0
      vertex 161.583 53.5904 10
      vertex 161.583 53.5904 0
    endloop
  endfacet
  facet normal -0.994326 -0.106378 0
    outer loop
      vertex 161.583 53.5904 10
      vertex 161.634 53.1137 0
      vertex 161.634 53.1137 10
    endloop
  endfacet
  facet normal 0.868539 0.495621 0
    outer loop
      vertex 161.634 53.1137 10
      vertex 71.4742 211.112 0
      vertex 71.4742 211.112 10
    endloop
  endfacet
  facet normal 0.868539 0.495621 0
    outer loop
      vertex 71.4742 211.112 0
      vertex 161.634 53.1137 10
      vertex 161.634 53.1137 0
    endloop
  endfacet
  facet normal 0 1 -0
    outer loop
      vertex 71.4742 211.112 0
      vertex 19.1177 211.112 10
      vertex 71.4742 211.112 10
    endloop
  endfacet
  facet normal 0 1 0
    outer loop
      vertex 19.1177 211.112 10
      vertex 71.4742 211.112 0
      vertex 19.1177 211.112 0
    endloop
  endfacet
  facet normal -1 0 0
    outer loop
      vertex 19.1177 -1.31995 0
      vertex 19.1177 211.112 10
      vertex 19.1177 211.112 0
    endloop
  endfacet
  facet normal -1 -0 0
    outer loop
      vertex 19.1177 211.112 10
      vertex 19.1177 -1.31995 0
      vertex 19.1177 -1.31995 10
    endloop
  endfacet
  facet normal 0 -1 0
    outer loop
      vertex 19.1177 -1.31995 0
      vertex 60.8518 -1.31995 10
      vertex 19.1177 -1.31995 10
    endloop
  endfacet
  facet normal 0 -1 -0
    outer loop
      vertex 60.8518 -1.31995 10
      vertex 19.1177 -1.31995 0
      vertex 60.8518 -1.31995 0
    endloop
  endfacet
  facet normal 1 -0 0
    outer loop
      vertex 60.8518 -1.31995 10
      vertex 60.8518 123.733 0
      vertex 60.8518 123.733 10
    endloop
  endfacet
  facet normal 1 0 0
    outer loop
      vertex 60.8518 123.733 0
      vertex 60.8518 -1.31995 10
      vertex 60.8518 -1.31995 0
    endloop
  endfacet
endsolid OpenSCAD_Model
